<svg xmlns="http://www.w3.org/2000/svg" viewBox="0 0 247.78 138.21"><defs><style>.cls-1{fill:#fff;}</style></defs><g id="Calque_2" data-name="Calque 2"><g id="Logos"><path class="cls-1" d="M22,134.71c.1.91.27,2.31,1.35,2.67a5.64,5.64,0,0,0,1.64.22c.13,0,.2,0,.2.13s-.22.23-.53.23c-.55,0-3.27,0-4.2-.1-.58-.06-.7-.13-.7-.26s.05-.15.17-.17.15-.46.1-.91l-1.21-13.06H18.7l-6.17,13.09c-.53,1.1-.6,1.33-.83,1.33s-.3-.25-.78-1.16c-.65-1.23-2.82-5.58-2.94-5.84-.23-.45-3.05-6.49-3.32-7.17H4.55l-1,11.68c0,.4,0,.85,0,1.28a.8.8,0,0,0,.66.78,4.77,4.77,0,0,0,1,.13c.1,0,.21,0,.21.13s-.16.22-.46.22c-.93,0-2.14-.07-2.34-.07s-1.43.07-2.11.07c-.25,0-.43-.05-.43-.22s.13-.13.25-.13A3.11,3.11,0,0,0,1,137.5c.83-.15.9-1.13,1-2.09L3.83,119c0-.28.12-.46.27-.46s.25.1.38.38l7.7,15.83,7.4-15.8c.1-.23.2-.41.38-.41s.25.2.3.68Z"></path><path class="cls-1" d="M33,122.18c.28-.71.38-.83.53-.83s.3.3.53.78c.4.9,3.95,9.74,5.31,13,.81,1.91,1.41,2.19,1.89,2.34a3.12,3.12,0,0,0,.88.13c.12,0,.28,0,.28.18s-.26.17-.51.17-2,0-3.5-.05c-.42,0-.78,0-.78-.15s0-.1.15-.15A.4.4,0,0,0,38,137l-2-4.91c0-.1-.08-.12-.2-.12H30.69a.24.24,0,0,0-.23.17l-1.26,3.43a4.34,4.34,0,0,0-.32,1.43c0,.43.37.58.75.58h.2c.18,0,.23.07.23.18s-.13.17-.33.17c-.53,0-1.73-.07-2-.07s-1.33.07-2.24.07c-.27,0-.42-.05-.42-.17a.19.19,0,0,1,.2-.18c.15,0,.47,0,.65-.05,1-.13,1.44-.88,1.86-2Zm2.47,8.91c.1,0,.1-.05.08-.16l-2.19-5.86c-.13-.33-.26-.33-.38,0l-2.07,5.86c0,.11,0,.16.08.16Z"></path><path class="cls-1" d="M47.35,131.71c0,2.07,0,3.75.1,4.64.08.62.16,1,.81,1.13a9.21,9.21,0,0,0,1,.1.17.17,0,0,1,.17.18c0,.1-.1.17-.35.17-1.23,0-2.67-.07-2.77-.07s-1.51.07-2.19.07c-.22,0-.35-.05-.35-.17a.17.17,0,0,1,.18-.18,3.29,3.29,0,0,0,.68-.1c.42-.1.5-.51.57-1.13.11-.89.13-2.57.13-4.64v-3.77c0-3.32,0-3.93-.05-4.61s-.23-1-.7-1.15a4.19,4.19,0,0,0-.68-.08.19.19,0,0,1-.18-.17c0-.13.1-.18.35-.18.73,0,2.12,0,2.24,0s1.54,0,2.22,0c.25,0,.35,0,.35.18a.21.21,0,0,1-.18.17,2.45,2.45,0,0,0-.55.05c-.6.13-.73.43-.78,1.18s0,1.29,0,4.61Z"></path><path class="cls-1" d="M53.27,137.63c-.3-.15-.33-.23-.33-.81,0-1,.1-1.91.13-2.26s0-.35.18-.35.2.07.2.25a3.47,3.47,0,0,0,.07.78c.36,1.56,2,2.11,3.5,2.11,2.19,0,3.32-1.23,3.32-2.84s-.83-2.27-2.79-3.73l-1-.75c-2.39-1.79-3.17-3.1-3.17-4.58,0-2.52,2-4,4.91-4a11.14,11.14,0,0,1,2.29.25,2.88,2.88,0,0,0,.78.1c.18,0,.23,0,.23.16s-.1.8-.1,2.26c0,.33,0,.48-.18.48s-.18-.1-.2-.28a4.07,4.07,0,0,0-.33-1.06c-.15-.25-.88-1-2.87-1-1.61,0-2.94.8-2.94,2.31,0,1.36.68,2.14,2.87,3.63l.63.42c2.69,1.84,3.62,3.33,3.62,5.16A4.18,4.18,0,0,1,60,137.45a6.75,6.75,0,0,1-3.53.76A8.11,8.11,0,0,1,53.27,137.63Z"></path><path class="cls-1" d="M74.59,121.45c5,0,8.76,3,8.76,8a8.57,8.57,0,0,1-8.88,8.73,8.21,8.21,0,0,1-8.66-8.41A8.47,8.47,0,0,1,74.59,121.45Zm.51,15.88c2,0,6-1.06,6-7.25,0-5.13-3.12-7.83-6.62-7.83-3.7,0-6.37,2.32-6.37,7C68.1,134.21,71.09,137.33,75.1,137.33Z"></path><path class="cls-1" d="M88.92,135c0,1.76.25,2.29.85,2.44a5.45,5.45,0,0,0,1.11.13.17.17,0,0,1,.18.18c0,.12-.15.17-.4.17-1.26,0-2.14-.07-2.34-.07s-1.14.07-2.14.07c-.23,0-.36,0-.36-.17a.17.17,0,0,1,.18-.18,3.57,3.57,0,0,0,.91-.13c.55-.15.63-.73.63-2.66V122.53c0-.86.12-1.08.3-1.08s.63.42.85.65,3.58,3.78,7,7.3c2.19,2.26,4.55,4.81,5.23,5.51l-.22-10.72c0-1.38-.15-1.86-.83-2a8,8,0,0,0-1.09-.1c-.15,0-.17-.12-.17-.2s.17-.15.43-.15c1,0,2.06,0,2.31,0s1,0,1.89,0c.23,0,.4,0,.4.15a.24.24,0,0,1-.25.2,2.53,2.53,0,0,0-.53.05c-.73.15-.78.58-.78,1.86l0,12.54c0,1.41,0,1.53-.17,1.53s-.46-.17-1.69-1.31c-.23-.2-3.42-3.34-5.76-5.78-2.57-2.7-5.06-5.31-5.74-6.07Z"></path><path class="cls-1" d="M117.72,126.2c0-3.92,0-4.63,0-5.43s-.25-1.26-1.08-1.44a4.76,4.76,0,0,0-.86-.07c-.1,0-.2-.05-.2-.15s.13-.2.4-.2c1.14,0,2.72.07,2.85.07.3,0,1.88-.07,3.4-.07,2.49,0,7.09-.23,10.09,2.86a9,9,0,0,1,2.44,6.4,10.26,10.26,0,0,1-2.72,7.09c-1.08,1.14-3.35,2.9-7.63,2.9-1.08,0-2.41-.08-3.49-.15l-2.09-.15-1,0c-.5,0-1.08.05-1.46.05s-.4-.05-.4-.2,0-.15.2-.15a4,4,0,0,0,.76-.1c.5-.1.62-.66.72-1.39.13-1.05.13-3,.13-5.46Zm2.11,2.72c0,2.67,0,5,0,5.46a5.69,5.69,0,0,0,.28,1.92c.33.47,1.31,1,4.28,1a8.43,8.43,0,0,0,6-2.34c1.31-1.28,2-3.7,2-6a9,9,0,0,0-2.41-6.34c-2.37-2.5-5.24-2.85-8.23-2.85a6.71,6.71,0,0,0-1.64.18.44.44,0,0,0-.3.5c0,.86,0,3.42,0,5.36Z"></path><path class="cls-1" d="M140,127.94c0-3.32,0-3.93,0-4.61s-.18-1.08-.91-1.18c-.17,0-.55-.05-.75-.05a.21.21,0,0,1-.18-.17c0-.13.1-.18.36-.18,1,0,2.44,0,2.56,0s4.78,0,5.29,0a9.75,9.75,0,0,0,1-.13c.11,0,.21-.1.31-.1s.1.1.1.2-.13.41-.18,1c0,.2-.07,1.16-.12,1.41s-.11.23-.21.23-.17-.1-.17-.28a2.36,2.36,0,0,0-.13-.75c-.15-.36-.38-.51-1.58-.66-.38,0-2.95-.08-3.2-.08-.1,0-.13.08-.13.23v5.82c0,.15,0,.22.13.22.28,0,3.2,0,3.7,0s.86-.07,1.08-.3.25-.28.33-.28.12.05.12.18-.12.48-.17,1.18c-.05.43-.1,1.23-.1,1.39s-.05.4-.2.4-.15-.08-.15-.2a2,2,0,0,0-.1-.71c-.08-.3-.28-.55-1.14-.65-.6-.08-3-.1-3.34-.1-.13,0-.16.07-.16.15v1.78c0,.74,0,3.23,0,3.65,0,1.44.46,1.72,2.65,1.72a7.24,7.24,0,0,0,2.21-.23,1.63,1.63,0,0,0,1-1.49c0-.25.1-.32.22-.32s.16.17.16.32a17.15,17.15,0,0,1-.31,2.07c-.15.55-.37.55-1.23.55-1.66,0-2.94,0-3.85-.07s-1.51,0-1.84,0c0,0-.48,0-.95,0s-.93.05-1.29.05-.35-.05-.35-.17a.17.17,0,0,1,.18-.18c.2,0,.47-.08.68-.1.42-.08.47-.51.57-1.13a42.51,42.51,0,0,0,.13-4.64Z"></path><path class="cls-1" d="M162.58,126.2c0-3.92,0-4.63-.05-5.43s-.25-1.26-1.08-1.44a4.72,4.72,0,0,0-.85-.07c-.1,0-.21-.05-.21-.15s.13-.2.41-.2c1.13,0,2.72.07,2.84.07.61,0,1.59-.07,2.75-.07,4.12,0,5,2.51,5,3.77,0,2.06-1.18,3.3-2.37,4.53,1.87.58,4.36,2.37,4.36,5.31,0,2.69-2.12,5.49-6.42,5.49-.28,0-1.08,0-1.81-.08s-1.44-.07-1.54-.07l-1,0c-.51,0-1.09.05-1.46.05s-.41-.05-.41-.2,0-.15.2-.15a4,4,0,0,0,.76-.1c.5-.1.63-.66.73-1.39.12-1.05.12-3,.12-5.46Zm2,.56c0,.17.05.22.17.27a8.1,8.1,0,0,0,1.54.11c1.41,0,1.76-.06,2.29-.66a3.87,3.87,0,0,0,.91-2.54c0-2.09-.93-4.33-3.4-4.33a5.68,5.68,0,0,0-1.21.13c-.23.05-.3.12-.3.27Zm0,2.67c0,1.93,0,5,0,5.43.08,1.23.08,1.59.86,2a5.86,5.86,0,0,0,2.21.38,3.36,3.36,0,0,0,3.55-3.57,6,6,0,0,0-2.44-5,4.26,4.26,0,0,0-2.09-.73c-.32,0-1.58,0-2,0-.1,0-.15,0-.15.18Z"></path><path class="cls-1" d="M182.52,122.18c.28-.71.38-.83.53-.83s.3.3.53.78c.4.9,3.95,9.74,5.31,13,.8,1.91,1.41,2.19,1.89,2.34a3.07,3.07,0,0,0,.88.13c.12,0,.28,0,.28.18s-.26.17-.51.17-2,0-3.5-.05c-.42,0-.78,0-.78-.15s0-.1.15-.15a.4.4,0,0,0,.21-.58l-2-4.91c-.05-.1-.08-.12-.2-.12h-5.11a.24.24,0,0,0-.23.17l-1.26,3.43a4.34,4.34,0,0,0-.32,1.43c0,.43.37.58.75.58h.2c.18,0,.23.07.23.18s-.13.17-.33.17c-.53,0-1.74-.07-2-.07s-1.33.07-2.24.07c-.27,0-.42-.05-.42-.17a.19.19,0,0,1,.2-.18c.15,0,.47,0,.65-.05,1-.13,1.43-.88,1.86-2Zm2.47,8.91c.1,0,.1-.05.08-.16l-2.19-5.86c-.13-.33-.26-.33-.38,0l-2.07,5.86c0,.11,0,.16.08.16Z"></path><path class="cls-1" d="M195,135.92a8,8,0,0,1-2.7-6.34,8.42,8.42,0,0,1,2.5-5.84c1.33-1.29,3.34-2.29,6.74-2.29a21.18,21.18,0,0,1,3.22.25,16.8,16.8,0,0,0,2.27.33c.22,0,.27.1.27.22s-.05.43-.1,1.21,0,1.89-.05,2.19-.12.45-.25.45-.18-.15-.18-.45a2.78,2.78,0,0,0-.93-2.14,7.23,7.23,0,0,0-4.35-1.18c-2.84,0-4.2.75-5,1.48-1.64,1.51-2,3.43-2,5.59a7.77,7.77,0,0,0,8,7.75c1.66,0,2.76-.13,3.64-1a4,4,0,0,0,.86-1.78c0-.23.08-.3.23-.3s.2.15.2.3a21.86,21.86,0,0,1-.53,2.74c-.13.4-.18.48-.55.63a13.19,13.19,0,0,1-4,.48C199,138.21,196.77,137.43,195,135.92Z"></path><path class="cls-1" d="M218.72,121.45c5,0,8.76,3,8.76,8a8.57,8.57,0,0,1-8.88,8.73,8.21,8.21,0,0,1-8.66-8.41A8.47,8.47,0,0,1,218.72,121.45Zm.51,15.88c2,0,6-1.06,6-7.25,0-5.13-3.12-7.83-6.62-7.83-3.7,0-6.37,2.32-6.37,7C212.23,134.21,215.23,137.33,219.23,137.33Z"></path><path class="cls-1" d="M233.05,135c0,1.76.25,2.29.86,2.44a5.31,5.31,0,0,0,1.11.13.17.17,0,0,1,.17.18c0,.12-.15.17-.4.17-1.26,0-2.14-.07-2.34-.07s-1.13.07-2.14.07c-.23,0-.35,0-.35-.17a.17.17,0,0,1,.17-.18,3.57,3.57,0,0,0,.91-.13c.55-.15.63-.73.63-2.66V122.53c0-.86.12-1.08.3-1.08s.63.42.86.65,3.57,3.78,7,7.3c2.19,2.26,4.56,4.81,5.24,5.51l-.23-10.72c0-1.38-.15-1.86-.83-2a7.88,7.88,0,0,0-1.08-.1.18.18,0,0,1-.18-.2c0-.13.18-.15.43-.15,1,0,2.06,0,2.31,0s1,0,1.89,0c.23,0,.41,0,.41.15a.26.26,0,0,1-.26.2,2.45,2.45,0,0,0-.52.05c-.74.15-.79.58-.79,1.86l-.05,12.54c0,1.41,0,1.53-.17,1.53s-.46-.17-1.69-1.31c-.22-.2-3.42-3.34-5.76-5.78-2.57-2.7-5.06-5.31-5.74-6.07Z"></path><path class="cls-1" d="M124,109.42l-2-1.14C120.33,107.4,83,86.35,83,64.11V7.24h4.21c16.25,0,35.11-6.67,35.3-6.74L124,0l1.42.5c.19.07,19.05,6.74,35.3,6.74h4.21V64.11c0,22.24-37.29,43.29-38.88,44.17Zm-1.44-2.24,1.44.8,1.43-.8c1.56-.87,38.23-21.56,38.23-43.07V8.5h-2.95c-16.46,0-35.54-6.74-35.73-6.81l-1-.35-1,.35c-.19.07-19.27,6.81-35.73,6.81H84.31V64.11c0,21.51,36.66,42.2,38.22,43.07Z"></path><path class="cls-1" d="M101.42,41.06a1,1,0,0,1-.81-.38,1,1,0,0,1,.13-1.48,5.18,5.18,0,0,0,0-8.34,7.28,7.28,0,0,1,0-11.58,1.06,1.06,0,1,1,1.35,1.63,5.17,5.17,0,0,0,0,8.33,7.28,7.28,0,0,1,0,11.58A1.08,1.08,0,0,1,101.42,41.06Z"></path><path class="cls-1" d="M106.39,41.06a1.05,1.05,0,0,1-.67-1.86,5.18,5.18,0,0,0,0-8.34,7.28,7.28,0,0,1,0-11.58,1.06,1.06,0,0,1,1.35,1.63,5.17,5.17,0,0,0,0,8.33,7.28,7.28,0,0,1,0,11.58A1.09,1.09,0,0,1,106.39,41.06Z"></path><path class="cls-1" d="M111.37,41.06a1.05,1.05,0,0,1-.67-1.86,5.18,5.18,0,0,0,0-8.34,7.28,7.28,0,0,1,0-11.58A1.06,1.06,0,0,1,112,20.91a5.18,5.18,0,0,0,0,8.33,7.28,7.28,0,0,1,0,11.58A1,1,0,0,1,111.37,41.06Z"></path><path class="cls-1" d="M116.35,41.06a1.05,1.05,0,0,1-.67-1.86,5.19,5.19,0,0,0,0-8.34,7.28,7.28,0,0,1,0-11.58A1.06,1.06,0,0,1,117,20.91a5.17,5.17,0,0,0,0,8.33,7.28,7.28,0,0,1,0,11.58A1.06,1.06,0,0,1,116.35,41.06Z"></path><path class="cls-1" d="M134.07,26.13a7.46,7.46,0,0,1-5.78-2.87,1.05,1.05,0,1,1,1.62-1.35,5.17,5.17,0,0,0,8.33,0,7.28,7.28,0,0,1,11.58,0,1.06,1.06,0,1,1-1.63,1.35,5.17,5.17,0,0,0-8.33,0A7.48,7.48,0,0,1,134.07,26.13Z"></path><path class="cls-1" d="M134.07,31.1a7.43,7.43,0,0,1-5.78-2.87,1,1,0,0,1,.13-1.48,1.06,1.06,0,0,1,1.49.14,5.17,5.17,0,0,0,8.33,0,7.28,7.28,0,0,1,11.58,0,1,1,0,0,1-.14,1.48,1.06,1.06,0,0,1-1.49-.14,5.18,5.18,0,0,0-8.33,0A7.45,7.45,0,0,1,134.07,31.1Z"></path><path class="cls-1" d="M134.07,36.08a7.46,7.46,0,0,1-5.78-2.87,1,1,0,0,1,.13-1.48,1.06,1.06,0,0,1,1.49.14,5.17,5.17,0,0,0,8.33,0,7.28,7.28,0,0,1,11.58,0,1,1,0,0,1-.14,1.48,1.06,1.06,0,0,1-1.49-.14,5.17,5.17,0,0,0-8.33,0A7.48,7.48,0,0,1,134.07,36.08Z"></path><path class="cls-1" d="M134.07,41.06a7.46,7.46,0,0,1-5.78-2.87,1,1,0,0,1,.13-1.48,1.06,1.06,0,0,1,1.49.14,5.18,5.18,0,0,0,8.33,0,7.28,7.28,0,0,1,11.58,0,1,1,0,0,1-.14,1.48,1.06,1.06,0,0,1-1.49-.14,5.17,5.17,0,0,0-8.33,0A7.48,7.48,0,0,1,134.07,41.06Z"></path><path class="cls-1" d="M149,53.94H129.1a1.06,1.06,0,1,1,0-2.11H149a1.06,1.06,0,0,1,0,2.11Z"></path><path class="cls-1" d="M149,59.25H129.1a1.06,1.06,0,1,1,0-2.11H149a1.06,1.06,0,0,1,0,2.11Z"></path><path class="cls-1" d="M149,64.56H129.1a1.06,1.06,0,1,1,0-2.11H149a1.06,1.06,0,0,1,0,2.11Z"></path><path class="cls-1" d="M149,69.87H129.1a1.06,1.06,0,1,1,0-2.11H149a1.06,1.06,0,0,1,0,2.11Z"></path><path class="cls-1" d="M108.88,55.87l-5-4.6-4.27,3.94a1.05,1.05,0,0,1-1.43-1.55l5.7-5.25,5,4.59,5-4.59,5.69,5.25a1.05,1.05,0,1,1-1.43,1.55l-4.26-3.94Z"></path><path class="cls-1" d="M108.88,61l-5-4.59-4.27,3.93a1,1,0,0,1-1.49-.06,1.07,1.07,0,0,1,.06-1.49l5.7-5.25,5,4.59,5-4.59,5.69,5.25a1.05,1.05,0,1,1-1.43,1.55l-4.26-3.93Z"></path><path class="cls-1" d="M108.88,66.08l-5-4.59-4.27,3.93a1.05,1.05,0,0,1-1.43-1.55l5.7-5.25,5,4.59,5-4.59,5.69,5.25a1.05,1.05,0,1,1-1.43,1.55l-4.26-3.93Z"></path><path class="cls-1" d="M108.88,71.18l-5-4.59-4.27,3.93A1.05,1.05,0,1,1,98.21,69l5.7-5.26,5,4.6,5-4.6L119.55,69a1.05,1.05,0,1,1-1.43,1.54l-4.26-3.93Z"></path><path class="cls-1" d="M160.68,9.56c-16.58,0-35.89-6.81-36.08-6.88L124,2.46l-.64.22c-.19.07-19.5,6.88-36.08,6.88H85.36V64.11c0,20.92,36.15,41.29,37.69,42.15l.92.51.92-.51c1.54-.86,37.68-21.23,37.68-42.15V9.56Zm-1.89,54.55c0,9.26-8.67,18.81-17.47,26.13-3.2-3.19-10,6.86-17.35,6.86s-13.62-10.59-17.35-6.86c-8.8-7.32-17.47-16.87-17.47-26.13V13.31c15.19-.41,31.38-5.67,34.82-6.84,3.43,1.17,19.62,6.43,34.82,6.84Z"></path><path class="cls-1" d="M130,87.43c1.9-3.74-2-7.12-2-7.12s.68,2.91-1,4.89a7.65,7.65,0,0,0-.7-1.56c-2.7-4.45-1.35-7-1.35-7s-5.18,3.34-3.13,9a12.06,12.06,0,0,1,.53,2c-.34-.52-.8-1.16-1.4-2-2.35-3.19-1.77-4.34-1.77-4.34s-2.33,1.69-.92,6.57c-3-1.63-2.58-3.9-2.58-3.9s-1.85,5.65,1.34,8.84c2.3,2.3,3.5,3.19,4.45,3.06a3.32,3.32,0,0,1,.89-3.37,10.28,10.28,0,0,0,2.13-5s2.34,2.74,2.48,5.14a5.48,5.48,0,0,1-.44,3.12,6,6,0,0,0,4.79-4,37.08,37.08,0,0,0,1.31-5.54A14.2,14.2,0,0,1,130,87.43Z"></path><path class="cls-1" d="M202,83.61c2.57.38,5.12.86,7.68,1.24.82.12,1.67.09,2.54.13-1.84-.53-3.63-1-5.39-1.55a2.88,2.88,0,0,1-1.94-1.51l-2.14-1.23c-1,.57-1.53-1.56-2.81-1-.15.06-.47-.29-.69-.46,0,0,0-.16-.06-.18s-.44-.29-.55-.23c-1,.59-1.8-.54-2.82-.39-.8.12-1.81-.51-2.47-.22-1.09.47-2.45,1-2.58,2.66,2.09.73,4.16,1.6,6.32,2.16A46.69,46.69,0,0,0,202,83.61Z"></path><path class="cls-1" d="M190.7,78.54c.15-.46.33-.92-.54-.73-1.83.4-3.69.68-5.51,1.12a11.65,11.65,0,0,0-2.48,1c-.24.13-.53.61-.46.82a1.34,1.34,0,0,0,.79.72,5.6,5.6,0,0,0,1.54.15c1.34,0,1.76.49,1.36,1.75-.25.78.08,1.06.7,1.14,1.35.15,2.71.24,4.07.35.82,0,1.08-.42.82-1.19-.41-1.26-1.54-2.36-.86-3.86C190.32,79.41,190.54,79,190.7,78.54Z"></path><path class="cls-1" d="M213,85.28a32.58,32.58,0,0,1-11.35-.46c-3.69-.85-7.46-1.37-10.9-3.52.56,2.24,1.69,3.83,3.8,4.33a27.38,27.38,0,0,0,5.48.75c3.38.1,6.77.07,10.15,0a12.71,12.71,0,0,0,2.88-.78Z"></path><path class="cls-1" d="M194.82,88.84c-.19-.37-.28-.57-.39-.75-1.22-1.92-3.12-1.66-5-1.49-.21,0-.59.46-.55.62a1.52,1.52,0,0,0,.63.9c.6.31,1.29.43,1.91.69s1.43.66,2.14,1l.14-.16-1-1.32.09-.18Z"></path><path class="cls-1" d="M187.62,89.28a9.42,9.42,0,0,0-1.84-.09c-.25,0-.68.26-.7.45a1,1,0,0,0,.35.87c.93.57,1.91,1,2.9,1.57l.11-1,1.1.18C189.32,89.69,189.15,89.49,187.62,89.28Z"></path><path class="cls-1" d="M180.75,90.16a26.48,26.48,0,0,0,3.07.26c.22,0,.62-.47.62-.72a1.07,1.07,0,0,0-.56-.83,4.56,4.56,0,0,0-1.34-.06l0-.06c-.62.13-1.25.24-1.85.43a.78.78,0,0,0-.36.58C180.29,89.89,180.57,90.14,180.75,90.16Z"></path><path class="cls-1" d="M185,93.12a23.65,23.65,0,0,0-2.91-.1,4.72,4.72,0,0,0-1.45.63,3.49,3.49,0,0,0,4.59.12.46.46,0,0,0,.14-.4A.51.51,0,0,0,185,93.12Z"></path><path class="cls-1" d="M186.6,88.06l.1-.21a2.73,2.73,0,0,0,.76-.09c.25-.1.65-.3.66-.47a1.26,1.26,0,0,0-.38-.87,1.33,1.33,0,0,0-.91-.27,10.68,10.68,0,0,0-1.93.4c-.05,0-.06.67.08.76A12.58,12.58,0,0,0,186.6,88.06Z"></path><path class="cls-1" d="M153.05,89.48a4.75,4.75,0,0,0,2.6,3.12,5.38,5.38,0,0,0,5.56-.57,23.38,23.38,0,0,0,2.46-2.21c1.09-1.11,2.1-2.3,3.17-3.43,1.6-1.68,3.41-3.19,4.34-5.57a6.86,6.86,0,0,1-1.38-.49c-.39-.23-.88-.56-1-.94a11.1,11.1,0,0,1-.46-2.87c0-1.32-1.89-2.94-3.14-2.48A19.87,19.87,0,0,0,161,75.87a53.2,53.2,0,0,1-8.65,11.55C152.58,88.11,152.82,88.79,153.05,89.48ZM164.5,76.41c.51,0,1,.11.89.68-.07.33-.59.56-1.09,1-.32-.43-.63-.67-.67-1C163.54,76.54,164,76.43,164.5,76.41Zm-1.61,4.51c.16-.11.57.16.87.26l-.84.93-.5-.29C162.57,81.5,162.64,81.08,162.89,80.92Zm-2.22,3.3c-.3.07-.74-.41-1.11-.65l.17-.36,1.45-.5C161.44,83.47,161.3,84.06,160.67,84.22Zm-.75-5c.28-.11.91,0,1,.24.34.74-.11,1.28-1.22,1.56C159.43,80.29,158.83,79.58,159.92,79.19Zm-2.84,5.86c.18-.07.46.07.69.11l.07.35a3.81,3.81,0,0,1-1.06.58c-.19,0-.47-.26-.72-.4A6.92,6.92,0,0,1,157.08,85.05Z"></path><path class="cls-1" d="M165.7,88.76a8.87,8.87,0,0,0-.95.77c-1,.92-1.94,1.89-3,2.75a6.19,6.19,0,0,1-5.37,1.12,5.12,5.12,0,0,1-3.16-2.11A10.23,10.23,0,0,1,151.82,88l-.38.38.06.2c1.25,4.08,4.51,6.08,8.18,5.18A8.84,8.84,0,0,0,165.7,88.76Z"></path><path class="cls-1" d="M149.77,90.17c.38-.29.82-.58.93-1.06l-1.47,1.42C149.42,90.41,149.61,90.29,149.77,90.17Z"></path><path class="cls-1" d="M182.61,82.17c-1.66-.27-2.08-1-1.39-2.43,0,0,0-.07-.05-.29a7.13,7.13,0,0,0-1.3.48c-1.39.89-2.75,1.83-4.13,2.73-.48.32-1,.57-1.49.89a1.36,1.36,0,0,0-.61.65c0,.17.26.47.47.65.47.41,1,.8,1.47,1.19l0,0a5.51,5.51,0,0,0,2,.16c1.91-.59,3.79-1.32,5.65-2.08a2.4,2.4,0,0,0,1.71-1.61C184.06,82.37,183.33,82.29,182.61,82.17Z"></path><path class="cls-1" d="M146.49,93.55c1.21.19,1.15-.78,1.5-1.32a.9.9,0,0,0,.19-.74c-.77.7-1.55,1.4-2.33,2.07A2.75,2.75,0,0,0,146.49,93.55Z"></path><path class="cls-1" d="M142.39,96.64c1.05.81,2.13.57,3.24.34a1.91,1.91,0,0,0,1.19-2.29.71.71,0,0,0-.51-.36,3.94,3.94,0,0,1-1.17-.17c-1,.82-1.95,1.62-2.91,2.38Z"></path><path class="cls-1" d="M155.84,100.27l-.21-.1c.74-1.44,1.51-2.87,1.34-4.52l-.28-.09L155,99.38c0-1.47.7-2.91.11-4.35l-.31,0c-.21.65-.42,1.31-.66,2-.87-.7.14-2.26-1.33-2.61-.13,1.27-.25,2.52-.37,3.78-.55-1.08-.19-2.35-1.27-3.45,0,.49,0,.76,0,1a7.75,7.75,0,0,1,.07,2.62c-.36,1.1.17,1.63.81,2.24.42.4,1,.73,1.23,1.22.56,1.2,1.4,1,2.1.18a25.57,25.57,0,0,0,1.94-2.89,4.94,4.94,0,0,0,.38-1.08l-.3-.16Z"></path><path class="cls-1" d="M141.31,101.16a1.13,1.13,0,0,0,1.63.31,7.62,7.62,0,0,1,1.79-.75A3.39,3.39,0,0,0,147,98.88a1.34,1.34,0,0,0,.09-1.06c-.15-.22-.66-.25-1-.26-1.37-.06-2.76.29-4.08-.49l-.26-.13-2.1,1.6C140.17,99.43,140.72,100.31,141.31,101.16Z"></path><path class="cls-1" d="M149.12,99.94c-.78-.74-1.29-.51-2.4.63a7.12,7.12,0,0,1-2,1c-.56.27-1.43.4-1.6.82-.29.69.49,1.07,1.07,1.39.25.14.46.36.72.5.71.38,1.44.73,2.35,1.2.24-.32.45-.58.64-.85a15.1,15.1,0,0,1,1.14-1.61A2.41,2.41,0,0,0,149.12,99.94Z"></path><path class="cls-1" d="M173.5,74.3a21.53,21.53,0,0,0,3.49.17,2.31,2.31,0,0,0,2-3.39c-.53.65-1,1.25-1.5,1.81l-.79-1.42c-.67.62-.73,1.68-1.75,1.5-.06-.42-.11-.79-.17-1.16-1,1.31-2.3,1.27-3.64,1.2a2.64,2.64,0,0,0-2.58,1.38c.94-.12,1.87-.32,2.81-.35A19.46,19.46,0,0,1,173.5,74.3Z"></path><path class="cls-1" d="M175.32,86.08a8,8,0,0,1-1.12-.6c-2.22-1.49-2.93-1.44-4.72.41-.8.82-.67,1.26.43,1.62a7.14,7.14,0,0,0,6.36-.75l-.72-.74,0,0C175.49,86.06,175.38,86.12,175.32,86.08Z"></path><path class="cls-1" d="M179.52,90a1.35,1.35,0,0,0-.61-1.1,4.25,4.25,0,0,0-1.53-.1l0-.13c-2,.44-4,.86-6.06,1.34a1,1,0,0,0-.53.71.85.85,0,0,0,.54.64,4.69,4.69,0,0,0,1.45.07c2-.17,3.92-.33,5.87-.59A1.31,1.31,0,0,0,179.52,90Z"></path><path class="cls-1" d="M151,100.57c-.19-.17-.56-.13-.84-.19a3,3,0,0,0-.14.87,2.6,2.6,0,0,1-1,3c-.25.15-.38.49-.65.86a4.17,4.17,0,0,0,4.2-.6,1.21,1.21,0,0,0,.35-2A13.86,13.86,0,0,0,151,100.57Z"></path><path class="cls-1" d="M178.86,75.66a10.51,10.51,0,0,0,1.13-.51c1.08-.66,2.12-1.4,3.22-2,2.76-1.56,5.58-3,8.85-3a13.22,13.22,0,0,1,6.12,1.33,73.8,73.8,0,0,0,8.29,3.43,18.81,18.81,0,0,0,4.89.52,4.54,4.54,0,0,0,1.49-.45l-.06-.2a1.75,1.75,0,0,0-.46,0,10,10,0,0,1-6-.42,72.74,72.74,0,0,1-7.23-2.91c-4.14-1.87-8.3-2.17-12.44-.23-2.7,1.26-5.26,2.82-7.89,4.25Z"></path><path class="cls-1" d="M170.31,92.6a2.69,2.69,0,0,1-.85,0c-.36-.13-.65-.48-.93.11s.13.93.54,1a11.13,11.13,0,0,0,2.74.45c1.05,0,2.11-.35,3.17-.37.89,0,1.09-.49,1.25-1.41Z"></path><path class="cls-1" d="M184.1,86.87c-.1-.73-.63-1-1.36-.85-1,.21-2.05.34-3,.64a17.3,17.3,0,0,0-2.28,1l.16.31a.7.7,0,0,0,.27.08c1.9-.11,3.82-.2,5.72-.38C183.78,87.7,184.14,87.14,184.1,86.87Z"></path><path class="cls-1" d="M171.24,94.87l-5.43.19c-.14,0-.27.13-.67.33a6.34,6.34,0,0,0,1.4.53c1.51.15,3,.27,4.56.34.33,0,.94-.19,1-.38C172.17,95.35,172,94.85,171.24,94.87Z"></path><path class="cls-1" d="M178.06,96.06a3.81,3.81,0,0,0-1-.28,4.2,4.2,0,0,0-1.13.46,6.71,6.71,0,0,0,.71,1,1.49,1.49,0,0,0,.7.31,5.36,5.36,0,0,0,4.23-.49,7.24,7.24,0,0,0-.72-.29C179.91,96.5,179,96.29,178.06,96.06Z"></path><path class="cls-1" d="M166.17,89.13c.16.28.26.73.5.82a31.09,31.09,0,0,0,3.13.91c.11,0,.37-.23.42-.4a.56.56,0,0,0-.18-.52,8.6,8.6,0,0,0-3.69-1Z"></path><path class="cls-1" d="M177.27,93.59c.58.16,1.2.23,2,.38a4,4,0,0,0,.78-.77c.08-.12-.16-.64-.29-.65a17.1,17.1,0,0,0-2.58,0c-.19,0-.49.37-.5.59S177,93.53,177.27,93.59Z"></path><path class="cls-1" d="M168.11,92.22c-1.07-.44-2-.9-3-1.19-.45-.14-.85.54-.62.92C165,92.74,167.13,93,168.11,92.22Z"></path><path class="cls-1" d="M172.64,95.78c.13.94,1,.76,2,1l.77-.8a4.78,4.78,0,0,0-1.54-.87C173.46,95,172.61,95.59,172.64,95.78Z"></path><path class="cls-1" d="M163.25,93.31a.81.81,0,0,0-1.14.63c0,.56,1.67,1.64,2.13,1.34a.93.93,0,0,0,.24-.89A4.73,4.73,0,0,0,163.25,93.31Z"></path><path class="cls-1" d="M171.08,75.52a1.46,1.46,0,0,0-1.6,1.57A1.76,1.76,0,0,0,171.21,79,1.8,1.8,0,0,0,173,77.2,2.13,2.13,0,0,0,171.08,75.52Zm-.05.7c.16,0,.37.22.71.44-.38.27-.6.54-.81.54s-.35-.33-.52-.52C170.61,76.52,170.8,76.27,171,76.22Zm.35,2.31a3.42,3.42,0,0,1-1.18-.27l.13-.37c.91.59,1.44,0,2-.67A1,1,0,0,1,171.38,78.53Z"></path><path class="cls-1" d="M176.88,74.94c-1.79-.24-3.58-.49-5.38-.56a3.35,3.35,0,0,0-2.3.65,3.67,3.67,0,0,0-.59,2.29,2.49,2.49,0,0,0,2.23,2.82c.55,0,.71.34.8.88.21,1.33.72,1.58,1.72.68a46.52,46.52,0,0,0,3.18-3.52c.21-.23.52-.58.76-.56,2.15.14,4-.73,5.83-1.63a21.65,21.65,0,0,1,2.75-1.21,19.88,19.88,0,0,1,10.68-.42,2.26,2.26,0,0,0,.58,0l0-.24a4.7,4.7,0,0,0-1.06-.35,25.21,25.21,0,0,0-3.57-.19,30,30,0,0,0-5.79.61c-2.31.6-4.5,1.68-6.76,2.48a27.67,27.67,0,0,1-3,.67,8.08,8.08,0,0,0,.44-1.71A.88.88,0,0,0,176.88,74.94Zm-5.54,4.84a2.34,2.34,0,0,1-2.3-2.35c0-1.27.86-2.53,1.84-2.57a2.71,2.71,0,0,1,2.88,2.45A3.13,3.13,0,0,1,171.34,79.78Z"></path><path class="cls-1" d="M45.55,83.61c-2.57.38-5.12.86-7.68,1.24-.82.12-1.66.09-2.54.13,1.85-.53,3.64-1,5.39-1.55a2.88,2.88,0,0,0,1.94-1.51l2.15-1.23c1,.57,1.52-1.56,2.81-1,.14.06.46-.29.69-.46,0,0,0-.16,0-.18s.44-.29.55-.23c1,.59,1.8-.54,2.82-.39.8.12,1.81-.51,2.48-.22,1.08.47,2.44,1,2.58,2.66-2.1.73-4.17,1.6-6.32,2.16A47.2,47.2,0,0,1,45.55,83.61Z"></path><path class="cls-1" d="M56.88,78.54c-.16-.46-.33-.92.54-.73,1.82.4,3.68.68,5.5,1.12a11.44,11.44,0,0,1,2.48,1c.25.13.53.61.46.82a1.34,1.34,0,0,1-.79.72,5.6,5.6,0,0,1-1.54.15c-1.34,0-1.76.49-1.36,1.75.25.78-.07,1.06-.69,1.14-1.36.15-2.72.24-4.08.35-.81,0-1.08-.42-.82-1.19.41-1.26,1.54-2.36.87-3.86A13.66,13.66,0,0,1,56.88,78.54Z"></path><path class="cls-1" d="M34.55,85.28a32.52,32.52,0,0,0,11.34-.46c3.69-.85,7.46-1.37,10.9-3.52-.56,2.24-1.69,3.83-3.8,4.33a27.28,27.28,0,0,1-5.48.75c-3.38.1-6.77.07-10.15,0a12.85,12.85,0,0,1-2.88-.78Z"></path><path class="cls-1" d="M52.75,88.84c.19-.37.28-.57.39-.75,1.23-1.92,3.12-1.66,5-1.49.22,0,.59.46.55.62a1.48,1.48,0,0,1-.63.9c-.6.31-1.28.43-1.91.69s-1.43.66-2.14,1l-.14-.16,1-1.32-.09-.18Z"></path><path class="cls-1" d="M60,89.28a9.42,9.42,0,0,1,1.84-.09c.25,0,.68.26.7.45a1,1,0,0,1-.35.87c-.93.57-1.91,1-2.9,1.57l-.11-1-1.1.18C58.25,89.69,58.43,89.49,60,89.28Z"></path><path class="cls-1" d="M66.82,90.16a26.48,26.48,0,0,1-3.07.26c-.22,0-.62-.47-.62-.72a1.1,1.1,0,0,1,.56-.83A4.56,4.56,0,0,1,65,88.81l0-.06c.62.13,1.25.24,1.85.43a.75.75,0,0,1,.36.58C67.28,89.89,67,90.14,66.82,90.16Z"></path><path class="cls-1" d="M62.57,93.12a23.43,23.43,0,0,1,2.9-.1,4.86,4.86,0,0,1,1.46.63,3.5,3.5,0,0,1-4.6.12.46.46,0,0,1-.14-.4A.51.51,0,0,1,62.57,93.12Z"></path><path class="cls-1" d="M61,88.06l-.09-.21a2.76,2.76,0,0,1-.77-.09c-.25-.1-.65-.3-.65-.47a1.18,1.18,0,0,1,.38-.87,1.32,1.32,0,0,1,.9-.27,10.5,10.5,0,0,1,1.93.4c.06,0,.07.67-.07.76A13.38,13.38,0,0,1,61,88.06Z"></path><path class="cls-1" d="M95.22,87.42a53.2,53.2,0,0,1-8.65-11.55A19.87,19.87,0,0,0,82.35,74c-1.24-.46-3.12,1.16-3.14,2.48a11.54,11.54,0,0,1-.45,2.87c-.11.38-.6.71-1,.94a7,7,0,0,1-1.39.49c.93,2.38,2.75,3.89,4.34,5.57,1.08,1.13,2.08,2.32,3.17,3.43A23.38,23.38,0,0,0,86.36,92a5.38,5.38,0,0,0,5.56.57,4.75,4.75,0,0,0,2.6-3.12C94.75,88.79,95,88.11,95.22,87.42ZM83.94,77.14c0,.28-.35.52-.67,1-.5-.44-1-.67-1.09-1-.13-.57.38-.7.89-.68S84,76.54,83.94,77.14Zm1.21,4.68-.5.29-.84-.93c.3-.1.71-.37.87-.26S85,81.5,85.15,81.82Zm1.24.89,1.45.5.17.36c-.37.24-.81.72-1.11.65C86.27,84.06,86.13,83.47,86.39,82.71ZM87.86,81c-1.11-.28-1.56-.82-1.21-1.56.09-.21.72-.35,1-.24C88.74,79.58,88.15,80.29,87.86,81Zm3.65,4.7c-.24.14-.52.45-.72.4a3.81,3.81,0,0,1-1.06-.58l.07-.35c.23,0,.51-.18.69-.11A6.44,6.44,0,0,1,91.51,85.69Z"></path><path class="cls-1" d="M81.87,88.76a8,8,0,0,1,.95.77c1,.92,1.94,1.89,3,2.75a6.2,6.2,0,0,0,5.37,1.12,5.12,5.12,0,0,0,3.16-2.11A10,10,0,0,0,95.75,88l.38.38,0,.2c-1.26,4.08-4.52,6.08-8.19,5.18A8.84,8.84,0,0,1,81.87,88.76Z"></path><path class="cls-1" d="M97.8,90.17c-.38-.29-.82-.58-.93-1.06l1.48,1.42A6.57,6.57,0,0,1,97.8,90.17Z"></path><path class="cls-1" d="M65,82.17c1.66-.27,2.08-1,1.39-2.43,0,0,0-.07.05-.29a6.87,6.87,0,0,1,1.3.48c1.39.89,2.75,1.83,4.13,2.73.48.32,1,.57,1.49.89a1.36,1.36,0,0,1,.61.65c0,.17-.26.47-.46.65-.48.41-1,.8-1.48,1.19l0,0a5.51,5.51,0,0,1-2,.16c-1.91-.59-3.79-1.32-5.65-2.08a2.42,2.42,0,0,1-1.71-1.61C63.51,82.37,64.24,82.29,65,82.17Z"></path><path class="cls-1" d="M101.08,93.55c-1.21.19-1.15-.78-1.5-1.32a.9.9,0,0,1-.19-.74c.77.7,1.55,1.4,2.33,2.07A2.76,2.76,0,0,1,101.08,93.55Z"></path><path class="cls-1" d="M105.18,96.64c-1.05.81-2.13.57-3.24.34a1.91,1.91,0,0,1-1.19-2.29.71.71,0,0,1,.51-.36,3.94,3.94,0,0,0,1.17-.17c1,.82,1.95,1.62,2.91,2.38Z"></path><path class="cls-1" d="M91.73,100.27l.22-.1c-.74-1.44-1.52-2.87-1.35-4.52l.28-.09,1.68,3.82c0-1.47-.7-2.91-.11-4.35l.31,0c.21.65.42,1.31.66,2,.88-.7-.13-2.26,1.34-2.61.12,1.27.24,2.52.36,3.78.55-1.08.19-2.35,1.27-3.45,0,.49,0,.76,0,1a8,8,0,0,0-.07,2.62c.36,1.1-.16,1.63-.81,2.24-.42.4-1,.73-1.23,1.22-.56,1.2-1.39,1-2.1.18a25.57,25.57,0,0,1-1.94-2.89,5.52,5.52,0,0,1-.38-1.08l.3-.16Z"></path><path class="cls-1" d="M106.26,101.16a1.13,1.13,0,0,1-1.63.31,7.62,7.62,0,0,0-1.79-.75,3.41,3.41,0,0,1-2.26-1.84,1.29,1.29,0,0,1-.08-1.06c.14-.22.65-.25,1-.26,1.37-.06,2.76.29,4.08-.49a2.24,2.24,0,0,1,.27-.13c.7.55,1.4,1.08,2.09,1.6C107.4,99.43,106.86,100.31,106.26,101.16Z"></path><path class="cls-1" d="M98.45,99.94c.78-.74,1.29-.51,2.4.63a7.12,7.12,0,0,0,2,1c.56.27,1.43.4,1.61.82.28.69-.5,1.07-1.08,1.39-.25.14-.46.36-.72.5-.71.38-1.43.73-2.35,1.2-.24-.32-.45-.58-.64-.85A15.1,15.1,0,0,0,98.51,103,2.41,2.41,0,0,1,98.45,99.94Z"></path><path class="cls-1" d="M74.07,74.3a21.53,21.53,0,0,1-3.49.17,2.31,2.31,0,0,1-2-3.39c.53.65,1,1.25,1.5,1.81l.79-1.42c.68.62.74,1.68,1.76,1.5,0-.42.11-.79.16-1.16,1,1.31,2.31,1.27,3.64,1.2A2.64,2.64,0,0,1,79,74.39c-.94-.12-1.87-.32-2.81-.35A19.46,19.46,0,0,0,74.07,74.3Z"></path><path class="cls-1" d="M72.25,86.08a8,8,0,0,0,1.12-.6C75.59,84,76.3,84,78.1,85.89c.79.82.66,1.26-.44,1.62a7.14,7.14,0,0,1-6.36-.75L72,86l0,0C72.08,86.06,72.19,86.12,72.25,86.08Z"></path><path class="cls-1" d="M68.05,90a1.37,1.37,0,0,1,.61-1.1,4.25,4.25,0,0,1,1.53-.1l0-.13c2,.44,4,.86,6.06,1.34a.92.92,0,0,1,.53.71.85.85,0,0,1-.54.64,4.67,4.67,0,0,1-1.45.07c-1.95-.17-3.92-.33-5.86-.59A1.31,1.31,0,0,1,68.05,90Z"></path><path class="cls-1" d="M96.56,100.57c.19-.17.56-.13.85-.19a3.4,3.4,0,0,1,.13.87,2.6,2.6,0,0,0,1,3c.24.15.37.49.64.86a4.18,4.18,0,0,1-4.2-.6,1.21,1.21,0,0,1-.35-2A13.86,13.86,0,0,1,96.56,100.57Z"></path><path class="cls-1" d="M68.71,75.66a9.54,9.54,0,0,1-1.12-.51c-1.09-.66-2.13-1.4-3.23-2-2.75-1.56-5.57-3-8.85-3a13.22,13.22,0,0,0-6.12,1.33,72.89,72.89,0,0,1-8.28,3.43,18.93,18.93,0,0,1-4.9.52,4.54,4.54,0,0,1-1.49-.45l.07-.2a1.69,1.69,0,0,1,.45,0,10,10,0,0,0,6-.42,71.78,71.78,0,0,0,7.23-2.91c4.14-1.87,8.3-2.17,12.44-.23,2.7,1.26,5.26,2.82,7.89,4.25Z"></path><path class="cls-1" d="M77.26,92.6a2.69,2.69,0,0,0,.85,0c.36-.13.66-.48.93.11s-.13.93-.54,1a11.13,11.13,0,0,1-2.73.45c-1.06,0-2.12-.35-3.18-.37-.88,0-1.09-.49-1.25-1.41Z"></path><path class="cls-1" d="M63.47,86.87c.1-.73.63-1,1.36-.85,1,.21,2,.34,3,.64a17.42,17.42,0,0,1,2.29,1L70,88a.75.75,0,0,1-.27.08c-1.91-.11-3.82-.2-5.73-.38C63.79,87.7,63.44,87.14,63.47,86.87Z"></path><path class="cls-1" d="M76.33,94.87l5.43.19c.14,0,.27.13.67.33a6.48,6.48,0,0,1-1.39.53c-1.52.15-3,.27-4.56.34-.34,0-1-.19-1-.38C75.4,95.35,75.61,94.85,76.33,94.87Z"></path><path class="cls-1" d="M69.52,96.06a3.62,3.62,0,0,1,1-.28,4.48,4.48,0,0,1,1.13.46,8.7,8.7,0,0,1-.71,1,1.58,1.58,0,0,1-.71.31A5.33,5.33,0,0,1,66,97a7.5,7.5,0,0,1,.71-.29Z"></path><path class="cls-1" d="M81.4,89.13c-.16.28-.26.73-.5.82a30.35,30.35,0,0,1-3.13.91c-.11,0-.37-.23-.42-.4a.56.56,0,0,1,.18-.52,8.64,8.64,0,0,1,3.7-1Z"></path><path class="cls-1" d="M70.31,93.59c-.59.16-1.21.23-2,.38a4,4,0,0,1-.78-.77c-.08-.12.17-.64.29-.65a17.13,17.13,0,0,1,2.58,0c.19,0,.49.37.5.59S70.54,93.53,70.31,93.59Z"></path><path class="cls-1" d="M79.46,92.22c1.07-.44,2-.9,3-1.19.45-.14.85.54.63.92C82.61,92.74,80.44,93,79.46,92.22Z"></path><path class="cls-1" d="M74.93,95.78c-.13.94-1,.76-2,1l-.77-.8a4.88,4.88,0,0,1,1.54-.87C74.11,95,75,95.59,74.93,95.78Z"></path><path class="cls-1" d="M84.32,93.31a.81.81,0,0,1,1.14.63c0,.56-1.67,1.64-2.13,1.34a1,1,0,0,1-.24-.89A4.73,4.73,0,0,1,84.32,93.31Z"></path><path class="cls-1" d="M74.6,77.2A1.81,1.81,0,0,0,76.37,79a1.76,1.76,0,0,0,1.72-1.94,1.46,1.46,0,0,0-1.59-1.57A2.13,2.13,0,0,0,74.6,77.2Zm2.56-.52c-.17.19-.34.52-.52.52s-.43-.27-.81-.54c.34-.22.55-.47.71-.44S77,76.52,77.16,76.68Zm-1.94.54c.58.66,1.11,1.26,2,.67l.13.37a3.52,3.52,0,0,1-1.19.27A1,1,0,0,1,75.22,77.22Z"></path><path class="cls-1" d="M70.12,75.61a8.08,8.08,0,0,0,.44,1.71,27.67,27.67,0,0,1-3-.67c-2.26-.8-4.44-1.88-6.75-2.48A30.09,30.09,0,0,0,55,73.56a25.27,25.27,0,0,0-3.58.19,4.7,4.7,0,0,0-1.06.35l0,.24a2.26,2.26,0,0,0,.58,0,19.87,19.87,0,0,1,10.68.42A21.65,21.65,0,0,1,64.44,76c1.85.9,3.69,1.77,5.83,1.63.24,0,.55.33.76.56a46.52,46.52,0,0,0,3.18,3.52c1,.9,1.51.65,1.72-.68.09-.54.25-.85.8-.88A2.48,2.48,0,0,0,79,77.32,3.61,3.61,0,0,0,78.37,75a3.33,3.33,0,0,0-2.29-.65c-1.81.07-3.6.32-5.39.56A.88.88,0,0,0,70.12,75.61Zm3.69,1.7a2.72,2.72,0,0,1,2.88-2.45c1,0,1.88,1.3,1.85,2.57a2.35,2.35,0,0,1-2.3,2.35A3.15,3.15,0,0,1,73.81,77.31Z"></path></g></g></svg>